<svg width="250" height="100" viewBox="0 0 951 159" fill="none" xmlns="http://www.w3.org/2000/svg">
<path d="M15.9 23.8C18.6333 23.2 21.3667 22.7333 24.1 22.4C26.8333 22 30.2 21.8 34.2 21.8C39.4667 21.8 44 22.6667 47.8 24.4C51.6 26.0667 54.7 28.3333 57.1 31.2C59.5 34.0667 61.2667 37.3667 62.4 41.1C63.5333 44.7667 64.1 48.6333 64.1 52.7C64.1 58.7 63.1667 64.2667 61.3 69.4C59.5 74.4667 56.9 78.8333 53.5 82.5C50.1 86.1667 45.9667 89.0333 41.1 91.1C36.2333 93.1667 30.7667 94.2 24.7 94.2C20.4333 94.2 16.6333 93.9 13.3 93.3C9.96667 92.7667 6.93333 92 4.2 91L15.9 23.8ZM33.4 29.8C31.6667 29.8 30.0333 29.9 28.5 30.1C26.9667 30.2333 25.5333 30.4667 24.2 30.8L14.8 84.7C16.3333 85.1 17.9667 85.4333 19.7 85.7C21.4333 85.9 23.3 86 25.3 86C29.6333 86 33.5667 85.2333 37.1 83.7C40.7 82.1 43.7667 79.8667 46.3 77C48.8333 74.1333 50.8 70.7 52.2 66.7C53.6 62.7 54.3 58.3 54.3 53.5C54.3 50.3667 53.8667 47.3667 53 44.5C52.2 41.6333 50.9333 39.1333 49.2 37C47.5333 34.8 45.3667 33.0667 42.7 31.8C40.1 30.4667 37 29.8 33.4 29.8ZM70.5086 93L82.8086 23H92.3086L80.0086 93H70.5086ZM90.7547 89.3L129.155 23H139.855L155.155 91.9L146.055 94L141.855 74H109.455L98.3547 93.8L90.7547 89.3ZM113.955 66H140.155L133.055 32.3L113.955 66ZM230.263 34.5L204.363 77.2H195.063L183.363 34.1L173.063 93H164.063L176.363 23H189.263L201.063 67.6L227.463 23H241.763L229.463 93H219.963L230.263 34.5ZM284.569 30C280.302 30 276.469 30.9333 273.069 32.8C269.735 34.6 266.902 37.0333 264.569 40.1C262.235 43.1667 260.435 46.7 259.169 50.7C257.969 54.6333 257.369 58.7 257.369 62.9C257.369 66.1 257.802 69.1 258.669 71.9C259.535 74.7 260.802 77.1667 262.469 79.3C264.202 81.3667 266.335 83 268.869 84.2C271.402 85.4 274.335 86 277.669 86C281.935 86 285.735 85.1 289.069 83.3C292.469 81.4333 295.335 78.9667 297.669 75.9C300.002 72.8333 301.769 69.3333 302.969 65.4C304.235 61.4 304.869 57.3 304.869 53.1C304.869 49.9 304.435 46.9 303.569 44.1C302.702 41.3 301.402 38.8667 299.669 36.8C298.002 34.6667 295.902 33 293.369 31.8C290.835 30.6 287.902 30 284.569 30ZM276.869 94.2C272.135 94.2 267.969 93.4 264.369 91.8C260.769 90.2 257.702 88.0333 255.169 85.3C252.702 82.5667 250.835 79.3333 249.569 75.6C248.302 71.8667 247.669 67.8333 247.669 63.5C247.669 58.1667 248.502 53 250.169 48C251.902 43 254.369 38.5667 257.569 34.7C260.769 30.7667 264.702 27.6333 269.369 25.3C274.035 22.9667 279.369 21.8 285.369 21.8C290.035 21.8 294.169 22.6 297.769 24.2C301.435 25.8 304.502 27.9667 306.969 30.7C309.502 33.4333 311.402 36.7 312.669 40.5C313.935 44.2333 314.569 48.2333 314.569 52.5C314.569 57.8333 313.702 63 311.969 68C310.302 73 307.869 77.4667 304.669 81.4C301.469 85.2667 297.535 88.3667 292.869 90.7C288.202 93.0333 282.869 94.2 276.869 94.2ZM340.197 34.6L329.997 93H320.997L333.297 23H345.897L366.397 81.8L376.797 23H385.797L373.497 93H361.097L340.197 34.6ZM402.912 23.8C405.645 23.2 408.378 22.7333 411.112 22.4C413.845 22 417.212 21.8 421.212 21.8C426.478 21.8 431.012 22.6667 434.812 24.4C438.612 26.0667 441.712 28.3333 444.112 31.2C446.512 34.0667 448.278 37.3667 449.412 41.1C450.545 44.7667 451.112 48.6333 451.112 52.7C451.112 58.7 450.178 64.2667 448.312 69.4C446.512 74.4667 443.912 78.8333 440.512 82.5C437.112 86.1667 432.978 89.0333 428.112 91.1C423.245 93.1667 417.778 94.2 411.712 94.2C407.445 94.2 403.645 93.9 400.312 93.3C396.978 92.7667 393.945 92 391.212 91L402.912 23.8ZM420.412 29.8C418.678 29.8 417.045 29.9 415.512 30.1C413.978 30.2333 412.545 30.4667 411.212 30.8L401.812 84.7C403.345 85.1 404.978 85.4333 406.712 85.7C408.445 85.9 410.312 86 412.312 86C416.645 86 420.578 85.2333 424.112 83.7C427.712 82.1 430.778 79.8667 433.312 77C435.845 74.1333 437.812 70.7 439.212 66.7C440.612 62.7 441.312 58.3 441.312 53.5C441.312 50.3667 440.878 47.3667 440.012 44.5C439.212 41.6333 437.945 39.1333 436.212 37C434.545 34.8 432.378 33.0667 429.712 31.8C427.112 30.4667 424.012 29.8 420.412 29.8Z" fill="#F4F0DD"/>
<path d="M489.71 92.8337L502.01 22.8337H511.511L499.21 92.8337H489.71ZM583.157 34.3337L557.257 77.0337H547.957L536.257 33.9337L525.957 92.8337H516.957L529.257 22.8337H542.157L553.957 67.4337L580.357 22.8337H594.657L582.357 92.8337H572.857L583.157 34.3337ZM593.062 89.1337L631.462 22.8337H642.162L657.462 91.7337L648.362 93.8337L644.162 73.8337H611.762L600.662 93.6337L593.062 89.1337ZM616.262 65.8337H642.462L635.362 32.1337L616.262 65.8337ZM678.571 23.8337C681.571 23.3003 684.371 22.867 686.971 22.5337C689.637 22.2003 692.737 22.0337 696.271 22.0337C700.071 22.0337 703.404 22.5003 706.271 23.4337C709.204 24.367 711.671 25.6337 713.671 27.2337C715.671 28.8337 717.171 30.7337 718.171 32.9337C719.171 35.067 719.671 37.367 719.671 39.8337C719.671 42.8337 719.137 45.467 718.071 47.7337C717.071 50.0003 715.637 51.9337 713.771 53.5337C711.971 55.1337 709.771 56.4337 707.171 57.4337C704.571 58.367 701.704 59.067 698.571 59.5337C701.304 60.8003 703.437 62.3003 704.971 64.0337C706.504 65.767 707.704 67.6003 708.571 69.5337C709.437 71.4003 710.137 73.3003 710.671 75.2337C711.204 77.1003 711.837 78.8003 712.571 80.3337C713.304 81.8003 714.271 83.0003 715.471 83.9337C716.671 84.867 718.371 85.3337 720.571 85.3337L717.071 93.5337C713.604 93.5337 710.937 92.767 709.071 91.2337C707.204 89.7003 705.671 87.767 704.471 85.4337C703.337 83.1003 702.304 80.6003 701.371 77.9337C700.504 75.267 699.304 72.767 697.771 70.4337C696.304 68.1003 694.304 66.167 691.771 64.6337C689.237 63.1003 685.737 62.3337 681.271 62.3337L675.871 92.8337H666.371L678.571 23.8337ZM695.671 29.9337C693.937 29.9337 692.337 30.0003 690.871 30.1337C689.471 30.267 688.137 30.467 686.871 30.7337L682.671 54.3337H690.971C696.837 54.3337 701.504 53.1337 704.971 50.7337C708.504 48.3337 710.271 45.1003 710.271 41.0337C710.271 37.767 708.971 35.1003 706.371 33.0337C703.837 30.967 700.271 29.9337 695.671 29.9337ZM728.48 92.8337L740.78 22.8337H750.28L737.98 92.8337H728.48ZM748.726 89.1337L787.126 22.8337H797.826L813.126 91.7337L804.026 93.8337L799.826 73.8337H767.426L756.326 93.6337L748.726 89.1337ZM771.926 65.8337H798.126L791.026 32.1337L771.926 65.8337ZM833.835 23.6337C836.901 23.0337 839.868 22.567 842.735 22.2337C845.601 21.8337 848.868 21.6337 852.535 21.6337C856.535 21.6337 860.035 22.1337 863.035 23.1337C866.035 24.067 868.501 25.3337 870.435 26.9337C872.435 28.5337 873.901 30.4003 874.835 32.5337C875.835 34.6003 876.335 36.7337 876.335 38.9337C876.335 43.5337 875.068 47.2337 872.535 50.0337C870.068 52.8337 866.335 54.967 861.335 56.4337C863.201 57.167 864.901 58.0337 866.435 59.0337C868.035 59.967 869.401 61.1003 870.535 62.4337C871.668 63.767 872.535 65.267 873.135 66.9337C873.801 68.6003 874.135 70.467 874.135 72.5337C874.135 76.1337 873.301 79.3003 871.635 82.0337C869.968 84.7003 867.701 86.9337 864.835 88.7337C861.968 90.5337 858.668 91.867 854.935 92.7337C851.201 93.6003 847.301 94.0337 843.235 94.0337C838.435 94.0337 834.268 93.667 830.735 92.9337C827.268 92.267 824.368 91.567 822.035 90.8337L833.835 23.6337ZM836.835 60.4337L832.635 84.7337C836.168 85.667 839.935 86.1337 843.935 86.1337C850.535 86.1337 855.601 84.9003 859.135 82.4337C862.668 79.9003 864.435 76.7003 864.435 72.8337C864.435 71.167 864.068 69.6003 863.335 68.1337C862.668 66.6003 861.568 65.267 860.035 64.1337C858.501 63.0003 856.535 62.1003 854.135 61.4337C851.801 60.767 848.935 60.4337 845.535 60.4337H836.835ZM852.135 29.1337C850.068 29.1337 848.235 29.2003 846.635 29.3337C845.035 29.467 843.568 29.667 842.235 29.9337L838.135 53.0337H847.935C851.135 53.0337 853.935 52.7003 856.335 52.0337C858.735 51.3003 860.735 50.367 862.335 49.2337C863.935 48.0337 865.101 46.667 865.835 45.1337C866.635 43.6003 867.035 41.967 867.035 40.2337C867.035 37.1003 865.768 34.467 863.235 32.3337C860.768 30.2003 857.068 29.1337 852.135 29.1337ZM896.053 22.8337H937.553L936.153 31.0337H904.053L900.353 52.3337H927.853L926.453 60.3337H898.953L894.653 84.6337H926.653L925.253 92.8337H883.753L896.053 22.8337Z" fill="url(#paint0_linear)"/>
<defs>
<linearGradient id="paint0_linear" x1="718.255" y1="0.833679" x2="718.255" y2="159" gradientUnits="userSpaceOnUse">
<stop offset="0.385417" stop-color="#B9A470"/>
<stop offset="0.911458" stop-color="#9C7E3A" stop-opacity="0"/>
</linearGradient>
</defs>
</svg>
